<svg xmlns="http://www.w3.org/2000/svg" viewBox="0 0 233.59 195.26"><defs><style>.cls-1{fill:#445d6421;opacity:0.4;}</style></defs><title>Asset 6</title><g id="Layer_2" data-name="Layer 2"><g id="Layer_1-2" data-name="Layer 1"><path class="cls-1" d="M63.33,58.92C63,60.05,61.4,61,59.07,60.34c-3.77-1-7.59-3.31-9.61-7.18-.63-1.22-3.06-9.88-2.7-11.18a1.31,1.31,0,0,1,1.79-.89C56.27,43.23,65.2,52.13,63.33,58.92ZM41.55,39.84C38.2,52,45.08,62.73,58.9,66.56c8.79,2.43,13.72.67,14.71-2.89.39-1.45-.42-4.11-.46-9.51,0-7.11-13.21-15.13-21.46-17.42C45.23,35,42.67,35.81,41.55,39.84ZM28.6,78.94c-.9,3.24,5.17,14.13,11.81,16,8.25,2.29,15.07.7,19.37-3,6.9-6.08,9.82-4.76,10.45-7,.17-2-4.5-8.89-9-10C48.28,71.35,30.42,72.33,28.6,78.94Zm33.27,6.34c-.45,1.61-8.84,7.47-14.4,5.93-5.74-1.59-9.61-8.57-9.25-9.87s8.7-3.5,16.24-1.41C59.12,81.22,62.18,84.15,61.87,85.28ZM62,103.91a12.85,12.85,0,0,0-11.07,9.28c-.8,2.91,4.19,8.63,11.72,10.71,11.48,3.18,21.52-6.56,22.28-9.31.4-1.45-.9-2.33-2.25-4.44-2-3.33-2.91-6.2-5.25-6.85C74.38,102.46,66.13,103.65,62,103.91Zm15.08,9.73c-1.16,4.2-8.15,7.83-11.2,7-2-.55-1-4.1-4.77-5.15-1.61-.44-2.15-2-1.61-3.93s7.17-2.88,13.1-1.24C74.39,110.81,77.35,112.68,77.08,113.64ZM56.22,7.36c-1.88,6.78,3.46,15.39,8,16.63,1.25.35,3-.22,3.27-1.35,1.25-4.53-7.77-6.85-6-13.15C62.05,7.23,64.6,6.38,66.94,7c5.74,1.59,10.72,8,8.44,16.25-.71,2.58.1,3.85,2.43,4.5,3.23.89,8.38-1.68,9.1-4.28C89,16.07,77.43,2.62,69.35.38,63.61-1.21,57.61,2.36,56.22,7.36ZM89.71,74A1.79,1.79,0,0,0,91,76.21c4.12,1.14,6.44-14.21,16.13-11.53,2.52.7,2.57,4,1.94,6.28-1.43,5.16-6.55,6.88-7.13,9a1.9,1.9,0,0,0,1.44,2.48c3.23.89,12.51-2.62,14.7-10.53,1.66-6-.19-14.66-4.85-16C105.17,53.7,93,62,89.71,74Zm1.58-39.7c-1.61,5.82-.12,10.22,2.93,11.07A4.64,4.64,0,0,0,100,41.89c.54-1.94-2.51-4.88-1.75-7.63A8.66,8.66,0,0,1,109,28.2c2.51.7,2.65,5.09,1.58,9-1.56,5.65-6.1,6-6.81,8.54a1.72,1.72,0,0,0,1.3,2.28c3.05.85,13.14-4.88,15.15-12.16,1.34-4.84-.09-8-2.7-11.17-2-2.47-1.26-5.92-3.42-6.52C108.36,16.55,94.11,24.08,91.29,34.25Zm39.08,28.16a1.39,1.39,0,0,0,1.08,1.7c3,.84,11-6.34,18.2-4.36a3.48,3.48,0,0,1,2.65,4.4c-2.05,7.41-11.74,6.13-12.55,9-.26,1,.23,2,1.84,2.42,7,1.94,18.71-2.66,20.72-9.92,1.34-4.84-2.62-11.5-7.64-12.89C146.59,50.56,131.48,58.38,130.37,62.41Zm16.94,25.38a1.81,1.81,0,0,0,1.29,2.28c3.05.84,4.85,0,7.36.64,5,1.39,7.19,4.08,6.7,5.85-.58,2.1-3.37,3.07-7.5,1.93-3.76-1-6.91-4.35-8.7-4.84A2,2,0,0,0,143.77,95c-.67,2.42,5.3,8.07,11.75,9.86,4.86,1.34,16.33-3.84,17.31-7.38,1.07-3.88-4-9.44-8.44-10.69C159,85.3,148.07,85.05,147.31,87.79Z"/><path class="cls-1" d="M133.65,83.79l-7-6.89-23.53,23.85c-.52-8.23-3.43-14.39-8.69-18.3-9.45-7-22.55-3.36-23.1-3.2l3,10.51c2.16-.62,9.28-1.69,13.52,1.46,2.85,2.13,4.32,6.15,4.37,12,.51,56.63.51,91,.51,92.08h11c0-1,0-30.9-.41-80.72Z"/><path class="cls-1" d="M16.73,132.57c-.15.54-.92,1-2,.68a7.26,7.26,0,0,1-4.62-3.45c-.3-.58-1.47-4.75-1.3-5.37a.63.63,0,0,1,.86-.43C13.34,125,17.64,129.3,16.73,132.57ZM6.27,123.4c-1.61,5.83,1.69,11,8.34,12.84,4.22,1.17,6.59.32,7.06-1.39.19-.7-.2-2-.22-4.57,0-3.42-6.34-7.27-10.31-8.37C8,121.05,6.81,121.46,6.27,123.4ZM0,142.19c-.43,1.55,2.49,6.79,5.68,7.67,4,1.1,7.24.34,9.31-1.43,3.31-2.93,4.72-2.29,5-3.38.08-1-2.16-4.27-4.34-4.79C9.5,138.54.92,139,0,142.19Zm16,3.05c-.21.77-4.24,3.59-6.92,2.85S4.5,144,4.67,143.34s4.18-1.68,7.8-.68C14.71,143.28,16.18,144.69,16,145.24Zm.07,8.95a6.18,6.18,0,0,0-5.32,4.46c-.39,1.4,2,4.14,5.63,5.14,5.52,1.53,10.34-3.15,10.7-4.47.2-.7-.43-1.12-1.08-2.13-1-1.6-1.4-3-2.52-3.29C22,153.49,18.08,154.06,16.1,154.19Zm7.24,4.68c-.55,2-3.91,3.76-5.38,3.35-.95-.26-.48-2-2.29-2.47-.78-.21-1-1-.78-1.89s3.45-1.38,6.3-.59C22.05,157.5,23.47,158.4,23.34,158.87Zm-10-51.08c-.9,3.26,1.66,7.4,3.82,8a1.33,1.33,0,0,0,1.58-.65c.6-2.17-3.74-3.29-2.9-6.31a2,2,0,0,1,2.65-1.19,6.16,6.16,0,0,1,4.06,7.8c-.35,1.25,0,1.86,1.16,2.17,1.56.43,4-.81,4.38-2.06,1-3.56-4.56-10-8.44-11.1A5.2,5.2,0,0,0,13.32,107.79Zm16.09,32a.87.87,0,0,0,.63,1.09c2,.55,3.09-6.83,7.75-5.54,1.21.33,1.24,1.93.94,3-.69,2.48-3.15,3.31-3.43,4.32a.91.91,0,0,0,.69,1.19c1.55.43,6-1.26,7.07-5.06.79-2.87-.1-7.05-2.34-7.67C36.84,130.06,31,134.05,29.41,139.79Zm.76-19.08c-.77,2.8-.06,4.92,1.41,5.32a2.22,2.22,0,0,0,2.78-1.65c.25-.93-1.21-2.34-.84-3.66a4.15,4.15,0,0,1,5.16-2.91c1.21.33,1.28,2.44.76,4.3-.75,2.72-2.93,2.87-3.27,4.11a.82.82,0,0,0,.62,1.09c1.47.41,6.32-2.35,7.29-5.84a5.39,5.39,0,0,0-1.3-5.37c-1-1.19-.61-2.84-1.65-3.13C38.37,112.21,31.52,115.83,30.17,120.71ZM49,134.25a.66.66,0,0,0,.52.81c1.46.41,5.3-3.05,8.75-2.09a1.68,1.68,0,0,1,1.27,2.11c-1,3.56-5.64,2.95-6,4.34-.13.47.11,1,.88,1.17,3.37.93,9-1.28,10-4.77.64-2.32-1.26-5.53-3.67-6.19C56.75,128.55,49.48,132.31,49,134.25Zm8.14,12.19a.88.88,0,0,0,.62,1.1c1.47.4,2.33,0,3.54.31,2.41.66,3.45,2,3.22,2.81-.28,1-1.62,1.47-3.6.92-1.81-.5-3.33-2.09-4.19-2.32a1,1,0,0,0-1.29.64c-.32,1.16,2.55,3.88,5.65,4.74,2.33.64,7.84-1.84,8.32-3.55.51-1.86-1.9-4.53-4.06-5.13C62.71,145.24,57.45,145.12,57.09,146.44Z"/><path class="cls-1" d="M38.34,148a10.15,10.15,0,0,0-3.06,5.29l-5.73-6.31-2.78,2.52,8,8.83c-.68,24.26,0,36.85.06,37L39,195c0-.1-.46-7.87-.31-22.95l4.77-4.58-2.6-2.71-2.1,2q.07-4.68.24-10.11c.08-2.53.77-4.4,2.07-5.57a6.78,6.78,0,0,1,4.5-1.49l.36-4.17A11,11,0,0,0,38.34,148Z"/><path class="cls-1" d="M138.36,145.64a9.36,9.36,0,0,0-2.84,4.83l-3.61-4-2.67,2.4,6,6.65v39.75h5.15V152.78a4.33,4.33,0,0,1,1.44-3.31c2.52-2.3,7.78-2.47,9.6-2.35l.36-5.14C150.89,141.92,143,141.48,138.36,145.64Z"/><path class="cls-1" d="M151.47,131.9a.5.5,0,0,1,.57.52,17.61,17.61,0,0,1-2.15,3.88,5.87,5.87,0,0,1-4.32,1.69c-.94,0-1.44-.52-1.44-1C144.13,134.3,148.37,131.9,151.47,131.9Zm-.72-1.94c-3.31,0-9.06,1.62-9.78,4.27-.58,2-1.15,2.92-1.15,3.5,0,1.43,1.65,2.59,5.17,2.59,5.54,0,9.21-3.3,9.21-8.16C154.2,130.55,153.34,130,150.75,130Zm6.83,16.44c-1.8-.07-4.24,2-4.39,2.78,0,.91,1.23.71,3.17,3.69,1.22,1.81,3.59,3.11,6.9,3.11,2.66,0,6-3.43,6-4.73C169.3,148.6,162.76,146.4,157.58,146.4Zm3.67,2.72c3,0,5.9,1.68,5.9,2.2S165,154,162.69,154s-4.75-3-4.75-3.69C157.94,149.89,159.38,149.12,161.25,149.12Zm-11.15,8.8c-.93,0-1.58,1-2.66,2-.72.65-1.29.85-1.29,1.43,0,1.1,2.73,5.76,7.33,5.76,3,0,5.47-1.61,5.47-2.78a5,5,0,0,0-3.17-4.6C154.27,159.21,151.32,157.92,150.1,157.92Zm1.08,3.11c2.37,0,4.75,1,4.75,1.81s-.36,1.29-1,1.29c-1.51,0-1.51,1.43-2.3,1.43-1.22,0-3.45-2.08-3.45-3.76C149.17,161.41,150.46,161,151.18,161Zm-24.72-10.46c-1.87,0-3.46,3-3.46,5.43,0,3.17,3.1,5.44,4.39,5.44a.74.74,0,0,0,.8-.78c0-.84-1.73-2-1.73-4.08,0-.9.36-2.13,1.37-2.13,3.88,0,3.16,6,4.81,6a.7.7,0,0,0,.72-.71C133.36,154.9,129.69,150.57,126.46,150.57Zm3.07-27.86c-.86,0-.93,1.37-1.94,2.08a4.32,4.32,0,0,0-2.16,3.88c0,2.91,3.17,6.08,4.39,6.08a.66.66,0,0,0,.72-.71c0-1-1.66-1.62-1.66-3.88,0-1.56.51-3.17,1.51-3.17a3.34,3.34,0,0,1,3.38,3.36c0,1.1-1.44,1.88-1.44,2.65a1.79,1.79,0,0,0,1.8,1.88c1.23,0,2.24-1.49,2.24-3.82C136.37,127,131.83,122.71,129.53,122.71Zm-7.3,12.6a4.52,4.52,0,0,0-4.17,4c0,2.91,3.88,5.83,6.69,5.83.64,0,.93-.33.93-.72,0-1.16-3.74-1.68-3.74-4.66a1.35,1.35,0,0,1,1.44-1.36c2.88,0,5.11,3.5,6.33,3.5a.54.54,0,0,0,.58-.52C130.29,139.77,125.47,135.31,122.23,135.31ZM115.11,147c-1.8,0-4.24,1.55-4.24,3.1s3.73,4.53,5.68,4.53c2.59,0,5.39-1.49,5.39-2.45a.78.78,0,0,0-.86-.78c-.72,0-2.23.9-3.74.9-1.66,0-2.59-.65-2.59-1.49s1.08-1.48,3.09-1.48c1,0,1.59.52,2.81.52a.7.7,0,0,0,.72-.72C121.37,148,117.26,147,115.11,147Z"/><path class="cls-1" d="M190,95.82c0,.67-.75,1.44-2.13,1.44a8.61,8.61,0,0,1-6.39-2.5c-.54-.57-3.2-5-3.2-5.75a.75.75,0,0,1,.85-.77C183.74,88.24,190,91.79,190,95.82Zm-14.92-7.19c0,7.19,5.44,12.08,13.64,12.08,5.22,0,7.67-1.73,7.67-3.84,0-.86-.85-2.2-1.7-5.18-1.07-3.92-9.6-6.32-14.49-6.32C176.39,85.37,175.11,86.23,175.11,88.63Zm-6.3,32.8a7.35,7.35,0,0,0-4.69,6.81c0,1.72,3.62,4.12,8.1,4.12,6.81,0,10.87-6.9,10.87-8.54,0-.86-.86-1.15-1.92-2.1-1.6-1.54-2.56-3-3.95-3C175.41,118.74,171.05,120.66,168.81,121.43Zm9.8,3.07c0,2.48-3.3,5.55-5.12,5.55-1.17,0-1.17-2.11-3.41-2.11-1,0-1.48-.76-1.48-1.91s3.51-2.68,7-2.68C176.69,123.35,178.61,123.92,178.61,124.5Zm3.4-55c0,4,4.26,8,6.93,8,.74,0,1.59-.57,1.59-1.24,0-2.68-5.32-2.59-5.32-6.33a2.42,2.42,0,0,1,2.65-2.2A7.33,7.33,0,0,1,195,75.3c0,1.54.64,2.11,2,2.11,1.91,0,4.36-2.2,4.36-3.74,0-4.41-8.42-10.06-13.21-10.06A6.19,6.19,0,0,0,182,69.46Zm16.12,43.42a1,1,0,0,0,1.06,1.06c2.45,0,1.39-8.82,7.14-8.82,1.49,0,2,1.82,2,3.16,0,3.07-2.56,4.79-2.56,6a1.09,1.09,0,0,0,1.18,1.14c1.92,0,6.5-3.36,6.5-8,0-3.55-2.35-8.06-5.12-8.06C203.56,99.36,198.13,105.79,198.13,112.88Zm1.21-28.07c0,3.45,1.5,5.65,3.3,5.65a2.65,2.65,0,0,0,2.67-2.78c0-1.15-2.13-2.31-2.13-3.93a5,5,0,0,1,5-5c1.5,0,2.24,2.4,2.24,4.7,0,3.36-2.45,4.22-2.45,5.76a1,1,0,0,0,1.07,1c1.81,0,6.49-4.7,6.49-9a6.37,6.37,0,0,0-3.19-5.74c-1.49-1.06-1.6-3.07-2.87-3.07C206.05,72.44,199.34,78.76,199.34,84.81Zm16.14,19.41a.8.8,0,0,0,.85.77c1.8,0,5.11-5.18,9.37-5.18a2,2,0,0,1,2.14,2c0,4.41-5.55,5.17-5.55,6.9,0,.57.43,1,1.39,1,4.16,0,9.91-4.31,9.91-8.63,0-2.87-3.2-5.94-6.19-5.94C222.61,95.21,215.48,101.83,215.48,104.22Zm-8,15.07a1,1,0,0,0,1.06,1c1.82,0,2.67-.77,4.16-.77,3,0,4.58,1.15,4.58,2.21,0,1.24-1.38,2.21-3.83,2.21-2.24,0-4.48-1.35-5.55-1.35a1.16,1.16,0,0,0-1.27,1.15c0,1.44,4.15,3.65,8,3.65,2.88,0,8.42-4.61,8.42-6.72,0-2.3-3.63-4.6-6.29-4.6C213.56,116.12,207.48,117.66,207.48,119.29Z"/><path class="cls-1" d="M201.71,123.81l-4.21-3.72-4,4.55v-2.49c0-11.43-5.18-15-8.29-16.1-2.27-.82-6.18-1.08-7.76.85l4.25,4.88.49,0a4.28,4.28,0,0,1,2.12.88c1.93,1.51,2.94,4.8,2.93,9.53v73.12h6.26V133.13Z"/></g></g></svg>