<svg xmlns="http://www.w3.org/2000/svg" viewBox="0 0 379.13 195.26"><defs><style>.cls-1{fill:#445d6421;opacity:0.4;}</style></defs><title>Asset 7</title><g id="Layer_2" data-name="Layer 2"><g id="Layer_1-2" data-name="Layer 1"><path class="cls-1" d="M114.54,58.92c-.32,1.13-1.93,2.07-4.26,1.42-3.77-1-7.58-3.31-9.6-7.18C100.05,51.94,97.62,43.28,98,42a1.31,1.31,0,0,1,1.79-.89C107.48,43.23,116.42,52.13,114.54,58.92ZM92.76,39.84C89.41,52,96.29,62.73,110.11,66.56c8.8,2.43,13.72.67,14.71-2.89.4-1.45-.42-4.11-.46-9.51,0-7.11-13.21-15.13-21.46-17.42C96.44,35,93.88,35.81,92.76,39.84Zm-13,39.1c-.9,3.24,5.17,14.13,11.81,16,8.25,2.29,15.07.7,19.37-3,6.9-6.08,9.82-4.76,10.45-7,.18-2-4.5-8.89-9-10C99.49,71.35,81.64,72.33,79.81,78.94Zm33.27,6.34c-.45,1.61-8.84,7.47-14.4,5.93-5.74-1.59-9.61-8.57-9.25-9.87s8.7-3.5,16.24-1.41C110.33,81.22,113.39,84.15,113.08,85.28Zm.13,18.63a12.85,12.85,0,0,0-11.07,9.28c-.8,2.91,4.19,8.63,11.72,10.71,11.49,3.18,21.52-6.56,22.28-9.31.4-1.45-.9-2.33-2.25-4.44-2-3.33-2.91-6.2-5.25-6.85C125.59,102.46,117.34,103.65,113.21,103.91Zm15.09,9.73c-1.16,4.2-8.16,7.83-11.21,7-2-.55-1-4.1-4.77-5.15-1.61-.44-2.15-2-1.61-3.93s7.17-2.88,13.1-1.24C125.6,110.81,128.56,112.68,128.3,113.64ZM107.43,7.36c-1.87,6.78,3.47,15.39,8,16.63,1.25.35,3-.22,3.28-1.35,1.25-4.53-7.78-6.85-6-13.15.63-2.26,3.18-3.11,5.52-2.47,5.74,1.59,10.72,8,8.44,16.25-.71,2.58.1,3.85,2.43,4.5,3.24.89,8.39-1.68,9.11-4.28,2.05-7.42-9.49-20.87-17.57-23.11C114.82-1.21,108.82,2.36,107.43,7.36ZM140.92,74a1.8,1.8,0,0,0,1.31,2.26c4.13,1.14,6.44-14.21,16.13-11.53,2.52.7,2.57,4,1.94,6.28-1.43,5.16-6.55,6.88-7.13,9a1.9,1.9,0,0,0,1.44,2.48c3.23.89,12.51-2.62,14.7-10.53,1.66-6-.19-14.66-4.85-16C156.38,53.7,144.23,62,140.92,74Zm1.58-39.7c-1.61,5.82-.12,10.22,2.93,11.07a4.64,4.64,0,0,0,5.78-3.43c.54-1.94-2.51-4.88-1.75-7.63a8.67,8.67,0,0,1,10.75-6.06c2.51.7,2.65,5.09,1.58,9-1.56,5.65-6.1,6-6.81,8.54a1.72,1.72,0,0,0,1.3,2.28c3.05.85,13.14-4.88,15.16-12.16,1.33-4.84-.1-8-2.71-11.17-2-2.47-1.26-5.92-3.42-6.52C159.57,16.55,145.32,24.08,142.5,34.25Zm39.08,28.16a1.39,1.39,0,0,0,1.08,1.7c3,.84,11-6.34,18.21-4.36a3.48,3.48,0,0,1,2.64,4.4c-2,7.41-11.74,6.13-12.55,9-.26,1,.23,2,1.84,2.42,7,1.94,18.71-2.66,20.72-9.92,1.34-4.84-2.62-11.5-7.64-12.89C197.8,50.56,182.69,58.38,181.58,62.41Zm16.94,25.38a1.81,1.81,0,0,0,1.29,2.28c3.05.84,4.85,0,7.36.64,5,1.39,7.19,4.08,6.7,5.85-.58,2.1-3.37,3.07-7.5,1.93-3.76-1-6.91-4.35-8.7-4.84A2,2,0,0,0,195,95c-.67,2.42,5.3,8.07,11.76,9.86,4.85,1.34,16.32-3.84,17.31-7.38,1.07-3.88-4-9.44-8.45-10.69C210.22,85.3,199.28,85.05,198.52,87.79Z"/><path class="cls-1" d="M184.86,83.79l-7-6.89-23.53,23.85c-.52-8.23-3.43-14.39-8.69-18.3-9.45-7-22.55-3.36-23.1-3.2l3,10.51c2.16-.62,9.28-1.69,13.52,1.46,2.85,2.13,4.32,6.15,4.38,12,.5,56.63.5,91,.5,92.08h10.95c0-1,0-30.9-.41-80.72Z"/><path class="cls-1" d="M28.14,89.84c-.26.92-1.56,1.68-3.45,1.16a12.25,12.25,0,0,1-7.76-5.81c-.5-1-2.47-8-2.18-9a1.06,1.06,0,0,1,1.45-.72C22.43,77.17,29.65,84.36,28.14,89.84ZM10.54,74.43c-2.71,9.79,2.85,18.49,14,21.58,7.1,2,11.09.55,11.88-2.33.32-1.17-.33-3.32-.37-7.68,0-5.75-10.67-12.23-17.34-14.07C13.51,70.48,11.44,71.17,10.54,74.43ZM.07,106c-.72,2.62,4.18,11.42,9.55,12.9,6.67,1.85,12.17.56,15.65-2.41,5.58-4.92,7.93-3.84,8.44-5.67.14-1.65-3.63-7.19-7.29-8.06C16,99.89,1.55,100.68.07,106ZM27,111.14c-.36,1.31-7.14,6-11.64,4.8S7.56,109,7.85,108s7-2.83,13.12-1.14C24.74,107.86,27.21,110.23,27,111.14Zm.1,15a10.41,10.41,0,0,0-8.94,7.51c-.65,2.35,3.38,7,9.47,8.65,9.28,2.57,17.39-5.3,18-7.52.32-1.17-.73-1.88-1.81-3.59-1.6-2.69-2.36-5-4.25-5.53C37.07,125,30.4,126,27.06,126.19Zm12.19,7.87c-.93,3.39-6.59,6.33-9,5.65-1.6-.45-.81-3.32-3.86-4.16-1.3-.36-1.73-1.61-1.3-3.18s5.8-2.32,10.59-1C37.08,131.77,39.47,133.28,39.25,134.06ZM22.4,48.18c-1.52,5.48,2.79,12.44,6.42,13.44,1,.28,2.4-.18,2.65-1.09,1-3.66-6.28-5.54-4.88-10.62.51-1.83,2.58-2.52,4.46-2,4.64,1.28,8.67,6.47,6.83,13.12-.58,2.09.08,3.12,2,3.64,2.61.72,6.77-1.35,7.36-3.45,1.66-6-7.67-16.87-14.2-18.68C28.37,41.26,23.51,44.14,22.4,48.18ZM49.46,102a1.45,1.45,0,0,0,1,1.83c3.34.92,5.21-11.49,13-9.32,2,.56,2.07,3.24,1.57,5.07-1.16,4.17-5.3,5.56-5.77,7.26a1.54,1.54,0,0,0,1.17,2c2.61.72,10.11-2.11,11.88-8.51,1.33-4.83-.16-11.84-3.93-12.89C61.94,85.63,52.13,92.33,49.46,102Zm1.27-32.08c-1.3,4.7-.1,8.26,2.37,8.94a3.74,3.74,0,0,0,4.67-2.77c.43-1.57-2-3.94-1.41-6.16A7,7,0,0,1,65,65c2,.56,2.14,4.1,1.28,7.23-1.27,4.57-4.93,4.82-5.5,6.9a1.39,1.39,0,0,0,1,1.85c2.46.68,10.61-4,12.24-9.83,1.08-3.91-.08-6.48-2.18-9-1.64-2-1-4.79-2.77-5.27C64.52,55.6,53,61.69,50.73,69.91Z"/><path class="cls-1" d="M64.47,115.71a17.1,17.1,0,0,0-5.15,8.9L49.68,114,45,118.23l13.48,14.85c-1.15,40.78.07,62,.09,62.18l7-.42c0-.17-.76-13.23-.52-38.58l8-7.72L68.73,144l-3.53,3.4c.09-5.25.22-10.91.41-17,.13-4.24,1.3-7.39,3.48-9.35a11.3,11.3,0,0,1,7.57-2.51l.61-7C77,111.49,69.9,110.9,64.47,115.71Z"/><path class="cls-1" d="M360,53.5a1.25,1.25,0,0,1,1.71.85c.34,1.24-2,9.52-2.58,10.69a14.47,14.47,0,0,1-9.18,6.87c-2.23.61-3.78-.28-4.08-1.37C344.05,64.05,352.59,55.54,360,53.5Zm-3-4.15c-7.89,2.18-20.55,9.84-20.52,16.64,0,5.17-.81,7.71-.43,9.09.94,3.4,5.65,5.09,14.05,2.76,13.22-3.65,19.79-13.94,16.59-25.53C365.59,48.46,363.14,47.64,357,49.35Zm-9.09,36.5c-4.33,1-8.8,7.58-8.63,9.53.6,2.16,3.39.9,10,6.72,4.12,3.51,10.63,5,18.52,2.84,6.35-1.75,12.15-12.16,11.3-15.26C377.3,83.36,360.23,82.43,347.88,85.85Zm6.44,4.78c7.21-2,15.18.12,15.52,1.35s-3.35,7.92-8.84,9.43c-5.32,1.48-13.33-4.12-13.76-5.67C346.94,94.67,349.86,91.86,354.32,90.63Zm-22,22.34c-2.23.62-3.13,3.37-5,6.55-1.29,2-2.53,2.86-2.14,4.25.72,2.62,10.31,11.93,21.29,8.89,7.2-2,12-7.46,11.2-10.23a12.29,12.29,0,0,0-10.58-8.88C343.17,113.3,335.28,112.17,332.36,113Zm4.62,6.7c5.67-1.56,12-.66,12.52,1.19s0,3.33-1.54,3.76c-3.6,1-2.66,4.39-4.56,4.91-2.91.81-9.6-2.66-10.71-6.67C332.44,121.94,335.27,120.15,337,119.67Zm3.1-105.09c-7.72,2.14-18.75,15-16.79,22.1.69,2.48,5.62,4.94,8.71,4.08,2.23-.61,3-1.83,2.32-4.3-2.18-7.87,2.58-14,8.07-15.53,2.23-.62,4.68.2,5.28,2.36,1.66,6-7,8.25-5.77,12.57.3,1.08,1.93,1.63,3.13,1.29,4.29-1.18,9.4-9.41,7.6-15.9C351.31,16.47,345.57,13.06,340.08,14.58Zm-42,53.11c-4.46,1.24-6.22,9.53-4.64,15.25,2.09,7.56,11,10.92,14,10.07a1.82,1.82,0,0,0,1.38-2.37c-.56-2-5.45-3.65-6.82-8.59-.59-2.16-.55-5.33,1.86-6,9.27-2.56,11.48,12.12,15.42,11a1.72,1.72,0,0,0,1.25-2.17C317.46,73.48,305.85,65.55,298.12,67.69Zm-.82-36.14c-2.06.58-1.32,3.87-3.26,6.24-2.5,3-3.87,6-2.59,10.67,1.93,7,11.57,12.43,14.49,11.63a1.65,1.65,0,0,0,1.24-2.18c-.68-2.46-5-2.77-6.51-8.17-1-3.7-.89-7.9,1.51-8.56A8.28,8.28,0,0,1,312.46,47c.72,2.63-2.19,5.43-1.67,7.29a4.42,4.42,0,0,0,5.52,3.28c2.92-.81,4.34-5,2.8-10.58C316.42,37.24,302.79,30,297.3,31.55ZM258.52,64.69c-4.8,1.33-8.59,7.7-7.3,12.33C253.14,84,264.33,88.35,271,86.5c1.54-.43,2-1.39,1.76-2.32-.77-2.77-10-1.55-12-8.64a3.34,3.34,0,0,1,2.54-4.2c6.86-1.9,14.49,5,17.4,4.17a1.34,1.34,0,0,0,1-1.63C280.69,70,266.24,62.56,258.52,64.69Z"/><path class="cls-1" d="M302.86,101.15A20.13,20.13,0,0,1,309,111.68l11.4-12.57,5.53,5L309.93,121.7c1.37,48.25-.09,73.31-.1,73.56l-8.31-.5c0-.19.9-15.65.61-45.64L292.64,140l5.17-5.38,4.18,4q-.17-9.3-.48-20.12c-.15-5-1.54-8.74-4.12-11.07-3.69-3.31-8.9-3-8.95-3l-.72-8.3C288.07,96.15,296.43,95.46,302.86,101.15Z"/><path class="cls-1" d="M241.83,110.06c0,.58-.63,1.24-1.82,1.24a7.42,7.42,0,0,1-5.48-2.14c-.46-.49-2.74-4.27-2.74-4.93a.65.65,0,0,1,.73-.66C236.45,103.57,241.83,106.61,241.83,110.06Zm-12.78-6.15c0,6.15,4.66,10.34,11.69,10.34,4.47,0,6.57-1.47,6.57-3.28,0-.74-.73-1.89-1.46-4.44-.91-3.37-8.22-5.42-12.41-5.42C230.15,101.11,229.05,101.85,229.05,103.91ZM223.65,132a6.3,6.3,0,0,0-4,5.84c0,1.48,3.1,3.53,6.93,3.53,5.84,0,9.31-5.91,9.31-7.32,0-.73-.73-1-1.64-1.8-1.37-1.31-2.19-2.55-3.38-2.55C229.31,129.7,225.57,131.34,223.65,132Zm8.4,2.63c0,2.13-2.83,4.77-4.38,4.77-1,0-1-1.81-2.92-1.81-.82,0-1.28-.66-1.28-1.65s3-2.29,6-2.29C230.41,133.65,232.05,134.14,232.05,134.63ZM235,87.48c0,3.45,3.66,6.82,5.94,6.82.64,0,1.37-.5,1.37-1.07,0-2.3-4.57-2.22-4.57-5.42A2.08,2.08,0,0,1,240,85.92a6.28,6.28,0,0,1,6.12,6.57c0,1.31.55,1.81,1.74,1.81,1.63,0,3.74-1.89,3.74-3.21,0-3.78-7.21-8.62-11.32-8.62A5.31,5.31,0,0,0,235,87.48Zm13.81,37.2a.89.89,0,0,0,.92.91c2.09,0,1.18-7.56,6.11-7.56,1.28,0,1.73,1.56,1.73,2.71,0,2.63-2.19,4.11-2.19,5.18a.94.94,0,0,0,1,1c1.64,0,5.57-2.88,5.57-6.9,0-3-2-6.9-4.39-6.9C253.43,113.1,248.77,118.61,248.77,124.68Zm1-24.05c0,3,1.28,4.84,2.83,4.84a2.27,2.27,0,0,0,2.29-2.38c0-1-1.83-2-1.83-3.36a4.25,4.25,0,0,1,4.29-4.28c1.28,0,1.92,2.06,1.92,4,0,2.87-2.1,3.61-2.1,4.93a.84.84,0,0,0,.91.9c1.55,0,5.57-4,5.57-7.72A5.49,5.49,0,0,0,261,92.66c-1.28-.9-1.37-2.63-2.46-2.63C255.56,90,249.81,95.45,249.81,100.63Zm13.83,16.63a.68.68,0,0,0,.73.66c1.54,0,4.38-4.44,8-4.44a1.71,1.71,0,0,1,1.83,1.73c0,3.78-4.75,4.43-4.75,5.91,0,.49.36.91,1.18.91,3.57,0,8.49-3.7,8.49-7.4,0-2.46-2.73-5.09-5.3-5.09C269.75,109.54,263.64,115.21,263.64,117.26Zm-6.86,12.91a.89.89,0,0,0,.92.9c1.55,0,2.28-.65,3.56-.65,2.55,0,3.92,1,3.92,1.89,0,1.06-1.18,1.89-3.28,1.89-1.92,0-3.84-1.15-4.75-1.15a1,1,0,0,0-1.09,1c0,1.23,3.55,3.12,6.84,3.12,2.47,0,7.21-3.94,7.21-5.75,0-2-3.1-3.94-5.38-3.94C262,127.46,256.78,128.78,256.78,130.17Z"/><path class="cls-1" d="M251.84,134l-3.6-3.18-3.44,3.89v-2.13c0-9.79-4.44-12.85-7.1-13.79-1.95-.7-5.3-.93-6.65.73l3.64,4.18.42,0a3.81,3.81,0,0,1,1.82.76c1.65,1.29,2.51,4.11,2.51,8.17v62.64h5.36V142Z"/></g></g></svg>