<svg id="Layer_1" data-name="Layer 1" xmlns="http://www.w3.org/2000/svg" viewBox="0 0 201.18 181.22"><defs><style>.cls-1{fill:#445d6421;opacity:0.4;}</style></defs><title>foundation-bg4</title><g id="Layer_2" data-name="Layer 2"><g id="Layer_1-2" data-name="Layer 1-2"><path class="cls-1" d="M5.44,154.87c-.9,3.24,5.17,14.13,11.81,16,8.26,2.28,15.07.69,19.37-3,6.9-6.09,9.82-4.76,10.45-7,.18-2-4.5-8.89-9-10C25.12,147.29,7.27,148.26,5.44,154.87Zm33.27,6.34c-.45,1.62-8.83,7.47-14.4,5.93-5.74-1.58-9.6-8.57-9.24-9.86s8.69-3.5,16.23-1.42c4.7,1.29,7.7,4.23,7.41,5.35Zm15.22-160A12.88,12.88,0,0,0,42.86,10.5c-.8,2.91,4.19,8.62,11.72,10.71,11.48,3.17,21.52-6.56,22.27-9.31.41-1.45-.89-2.33-2.24-4.44-2-3.33-2.91-6.2-5.25-6.85-3-.81-11.3.39-15.43.63ZM69,11c-1.16,4.2-8.15,7.83-11.2,7-2-.55-1-4.09-4.77-5.14-1.61-.45-2.15-2-1.61-3.93S58.6,6,64.53,7.65C66.32,8.15,69.28,10,69,11ZM.39,54.19c-1.88,6.79,3.46,15.39,8,16.64,1.26.34,3-.23,3.28-1.36,1.25-4.52-7.78-6.85-6-13.14.63-2.27,3.19-3.12,5.52-2.48,5.74,1.59,10.73,8,8.45,16.25-.72,2.58.09,3.85,2.42,4.5,3.24.89,8.39-1.68,9.11-4.27,2-7.43-9.49-20.88-17.56-23.11C7.77,45.63,1.77,49.19.39,54.19ZM145.85,172.57a1.79,1.79,0,0,0,1.21,2.24l.1,0c4.12,1.14,6.44-14.21,16.13-11.53,2.52.69,2.57,4,1.94,6.27-1.43,5.17-6.55,6.88-7.13,9a1.9,1.9,0,0,0,1.18,2.41l.26.07c3.23.9,12.51-2.62,14.7-10.53,1.66-6-.19-14.66-4.85-15.95C161.31,152.32,149.16,160.62,145.85,172.57ZM79.34,135c-1.61,5.82-.13,10.23,2.92,11.07a4.64,4.64,0,0,0,5.73-3.2l.06-.23c.54-1.94-2.51-4.88-1.75-7.63a8.65,8.65,0,0,1,10.64-6l.11,0c2.51.69,2.65,5.08,1.58,9-1.57,5.65-6.1,6-6.81,8.54a1.71,1.71,0,0,0,1,2.2l.29.08c3,.85,13.14-4.88,15.15-12.16,1.34-4.84-.1-8-2.7-11.17-2-2.47-1.26-5.92-3.42-6.51C96.41,117.3,82.15,124.83,79.34,135ZM129,16.67c-1.61,5.82-.13,10.22,2.92,11.07a4.63,4.63,0,0,0,5.72-3.21l.06-.22c.54-1.95-2.5-4.88-1.75-7.63a8.67,8.67,0,0,1,10.64-6.09l.12,0c2.5.7,2.65,5.08,1.58,9-1.57,5.65-6.11,6-6.82,8.54a1.72,1.72,0,0,0,1,2.2,1.29,1.29,0,0,0,.28.08c3,.85,13.13-4.88,15.15-12.16,1.34-4.84-.1-8-2.71-11.17-2-2.47-1.26-5.92-3.41-6.52C146-1,131.77,6.5,129,16.67Zm21.72,60.17a1.4,1.4,0,0,0,1.05,1.69h0c3,.84,11-6.34,18.21-4.36a3.5,3.5,0,0,1,2.72,4.12,2.68,2.68,0,0,1-.07.27c-2.06,7.42-11.75,6.14-12.55,9-.27,1,.23,2,1.84,2.42,7,1.94,18.71-2.65,20.72-9.91C184,75.28,180,68.62,175,67.23c-8.09-2.23-23.2,5.58-24.32,9.61ZM88.26,71.07a1.81,1.81,0,0,0,1.21,2.26l.08,0c3.06.84,4.85-.06,7.36.64,5,1.39,7.19,4.08,6.7,5.85-.58,2.1-3.37,3.07-7.49,1.93-3.77-1-6.92-4.35-8.71-4.84A2,2,0,0,0,84.8,78a2.41,2.41,0,0,0-.08.25c-.67,2.42,5.3,8.07,11.76,9.86,4.85,1.34,16.32-3.84,17.31-7.38,1.07-3.88-4-9.44-8.45-10.69C100,68.58,89,68.33,88.26,71.07Z" transform="translate(0 0.02)"/><path class="cls-1" d="M129.13,108.06c-.15.54-.93,1-2,.68a7.21,7.21,0,0,1-4.61-3.45c-.3-.59-1.47-4.75-1.3-5.37a.62.62,0,0,1,.76-.46l.1,0C125.74,100.52,130,104.79,129.13,108.06Zm-10.46-9.17c-1.61,5.83,1.69,11,8.33,12.84,4.23,1.17,6.6.32,7.07-1.39.19-.7-.2-2-.22-4.57,0-3.42-6.34-7.27-10.31-8.37C120.43,96.54,119.2,97,118.67,98.89Zm66.27-83.45c-.47-.3-.69-1.18-.07-2.11a7.23,7.23,0,0,1,4.63-3.42c.65-.12,5,0,5.52.31a.62.62,0,0,1,.22.86l-.06.09C193.14,14.37,187.82,17.22,184.94,15.44Zm11.8-7.37c-5.11-3.22-11-1.56-14.7,4.27-2.34,3.71-2.21,6.22-.71,7.17.62.38,2,.39,4.44,1.11,3.27,1,8.79-4,11-7.45C198.48,10.44,198.4,9.13,196.74,8.07Zm-185,3.33c-.15.54-.93,1-2,.68A7.29,7.29,0,0,1,5.13,8.63C4.83,8,3.66,3.88,3.83,3.26A.63.63,0,0,1,4.6,2.8a.16.16,0,0,1,.09,0C8.35,3.86,12.61,8.13,11.74,11.4ZM1.28,2.23C-.33,8.06,3,13.23,9.61,15.07c4.23,1.17,6.6.32,7.07-1.39.19-.7-.2-2-.22-4.57,0-3.42-6.34-7.27-10.31-8.37C3-.12,1.81.34,1.28,2.23ZM181.19,122.1c-.43,1.55,2.49,6.79,5.68,7.67,4,1.1,7.24.33,9.31-1.43,3.31-2.93,4.71-2.29,5-3.38.08-1-2.16-4.27-4.34-4.79C190.65,118.45,182.07,118.92,181.19,122.1Zm16,3c-.22.78-4.25,3.59-6.92,2.85s-4.62-4.11-4.44-4.74,4.18-1.68,7.8-.68c2.23.66,3.7,2.07,3.55,2.61ZM31.57,127.62a6.17,6.17,0,0,0-5.32,4.47c-.38,1.39,2,4.14,5.64,5.14,5.51,1.53,10.34-3.15,10.7-4.47.19-.7-.43-1.12-1.08-2.14-.95-1.6-1.4-3-2.52-3.29C37.52,126.93,33.56,127.5,31.57,127.62Zm7.25,4.68c-.56,2-3.92,3.76-5.38,3.36-.95-.26-.48-2-2.3-2.47-.77-.22-1-1-.77-1.89s3.45-1.38,6.29-.6C37.53,130.94,39,131.84,38.82,132.3Zm5.07-47.13c-.9,3.26,1.66,7.39,3.82,8a1.31,1.31,0,0,0,1.57-.65c.61-2.17-3.73-3.29-2.9-6.32A2.06,2.06,0,0,1,49,85a6.17,6.17,0,0,1,4.09,7.69l0,.12c-.34,1.24,0,1.85,1.17,2.16,1.56.43,4-.8,4.38-2,1-3.57-4.56-10-8.44-11.11A5.21,5.21,0,0,0,43.89,85.17Zm53-33.64c-.77,2.79-.06,4.91,1.41,5.31a2.21,2.21,0,0,0,2.69-1.6v-.05c.26-.93-1.2-2.34-.84-3.66a4.16,4.16,0,0,1,5.1-2.93l.07,0c1.2.33,1.27,2.44.76,4.3-.75,2.72-2.93,2.87-3.27,4.11a.81.81,0,0,0,.49,1l.13,0c1.47.41,6.32-2.34,7.28-5.84a5.33,5.33,0,0,0-1.3-5.37c-1-1.19-.6-2.84-1.64-3.13-2.72-.78-9.57,2.86-10.92,7.75ZM3,105.71a.67.67,0,0,0,.49.81h0c1.46.4,5.3-3,8.75-2.09a1.68,1.68,0,0,1,1.31,2s0,.09,0,.14c-1,3.56-5.64,3-6,4.34-.13.47.11,1,.88,1.16,3.37.94,9-1.27,10-4.76.65-2.33-1.26-5.53-3.67-6.2C10.79,100,3.53,103.78,3,105.71ZM143.58,45.3a.86.86,0,0,0,.57,1.08h0c1.47.41,2.33,0,3.54.31,2.41.67,3.45,2,3.21,2.82s-1.61,1.47-3.6.92c-1.81-.5-3.32-2.09-4.18-2.33a1,1,0,0,0-1.28.61v0c-.32,1.16,2.55,3.88,5.65,4.74,2.33.64,7.84-1.85,8.31-3.55.52-1.86-1.9-4.54-4.05-5.13C149.2,44.1,143.94,44,143.58,45.3Z" transform="translate(0 0.02)"/><path class="cls-1" d="M71.15,121.45c0,.67-.75,1.44-2.13,1.44a8.62,8.62,0,0,1-6.39-2.49c-.54-.57-3.21-5-3.21-5.75a.76.76,0,0,1,.74-.78h.12C64.86,113.88,71.15,117.43,71.15,121.45Zm-14.92-7.18c0,7.18,5.44,12.08,13.64,12.08,5.22,0,7.67-1.73,7.67-3.84,0-.86-.85-2.21-1.7-5.18-1.07-3.93-9.6-6.33-14.49-6.33C57.51,111,56.23,111.87,56.23,114.27ZM104,2.69A7.35,7.35,0,0,0,99.3,9.5c0,1.72,3.62,4.12,8.1,4.12,6.81,0,10.86-6.9,10.86-8.54,0-.86-.85-1.15-1.91-2.1-1.6-1.54-2.56-3-3.95-3C110.59,0,106.23,1.92,104,2.69Zm9.8,3.07c0,2.48-3.3,5.56-5.12,5.56-1.17,0-1.17-2.11-3.41-2.11-1,0-1.48-.77-1.48-1.92s3.51-2.68,7-2.68c1.08,0,3,.57,3,1.15Zm66,30.57c0,4,4.27,8,6.93,8,.74,0,1.6-.58,1.6-1.25,0-2.68-5.33-2.59-5.33-6.33a2.43,2.43,0,0,1,2.64-2.2h0a7.33,7.33,0,0,1,7.15,7.51.86.86,0,0,0,0,.16c0,1.53.64,2.11,2,2.11,1.91,0,4.36-2.2,4.36-3.75,0-4.4-8.41-10.06-13.21-10.06a6.2,6.2,0,0,0-6.16,5.81Zm-116.74,18c0,3.45,1.49,5.65,3.3,5.65A2.66,2.66,0,0,0,69,57.3v-.14c0-1.16-2.14-2.31-2.14-3.94a5,5,0,0,1,5-5c1.5,0,2.24,2.39,2.24,4.69,0,3.36-2.45,4.23-2.45,5.76a1,1,0,0,0,.95,1h.12c1.8,0,6.49-4.7,6.49-9A6.38,6.38,0,0,0,76.05,45c-1.5-1.06-1.6-3.07-2.88-3.07-3.41,0-10.12,6.31-10.12,12.35Zm76.78,73.79a.8.8,0,0,0,.83.77h0c1.81,0,5.11-5.18,9.38-5.18a2,2,0,0,1,2.13,1.87v.13c0,4.42-5.55,5.18-5.55,6.9,0,.58.43,1.06,1.39,1.06,4.16,0,9.91-4.31,9.91-8.63,0-2.88-3.2-5.94-6.19-5.94-4.76,0-11.93,6.57-11.93,9ZM19.53,28a1,1,0,0,0,.94,1.06h.13c1.81,0,2.66-.77,4.15-.77,3,0,4.58,1.15,4.58,2.2,0,1.25-1.38,2.21-3.83,2.21-2.24,0-4.48-1.34-5.54-1.34a1.16,1.16,0,0,0-1.26,1,.41.41,0,0,0,0,.11c0,1.43,4.14,3.64,8,3.64,2.88,0,8.42-4.6,8.42-6.71,0-2.3-3.63-4.6-6.29-4.6C25.61,24.83,19.53,26.36,19.53,28Z" transform="translate(0 0.02)"/></g></g></svg>