<svg xmlns="http://www.w3.org/2000/svg" viewBox="0 0 85.35 115.36"><defs><style>.cls-1{fill:#f5f7f7;}</style></defs><title>Asset 4</title><g id="Layer_2" data-name="Layer 2"><g id="Layer_1-2" data-name="Layer 1"><path class="cls-1" d="M20.57,34.81c-.18.67-1.14,1.22-2.52.84a8.88,8.88,0,0,1-5.67-4.24c-.37-.72-1.81-5.84-1.59-6.61a.76.76,0,0,1,1.05-.52C16.4,25.54,21.68,30.8,20.57,34.81ZM7.71,23.54C5.73,30.7,9.79,37.06,18,39.32c5.19,1.44,8.1.4,8.68-1.71.24-.85-.24-2.42-.27-5.61,0-4.21-7.8-8.94-12.68-10.29C9.88,20.65,8.37,21.16,7.71,23.54ZM.05,46.64C-.48,48.55,3.11,55,7,56.07c4.88,1.35,8.9.41,11.45-1.76,4.07-3.6,5.8-2.81,6.17-4.15.1-1.21-2.66-5.25-5.34-5.89C11.68,42.15,1.13,42.73.05,46.64Zm19.66,3.74c-.26,1-5.22,4.42-8.51,3.51s-5.67-5.07-5.46-5.83,5.14-2.07,9.59-.84C18.09,48,19.9,49.72,19.71,50.38Zm.08,11a7.59,7.59,0,0,0-6.54,5.48c-.48,1.72,2.47,5.1,6.92,6.33,6.79,1.88,12.71-3.88,13.16-5.5.24-.86-.53-1.37-1.32-2.62-1.17-2-1.73-3.67-3.1-4C27.1,60.53,22.23,61.23,19.79,61.39Zm8.91,5.75c-.69,2.48-4.82,4.62-6.62,4.13-1.17-.33-.59-2.43-2.82-3-1-.27-1.27-1.18-1-2.33s4.24-1.7,7.74-.73C27.11,65.47,28.86,66.57,28.7,67.14ZM16.37,4.35c-1.11,4,2.05,9.09,4.7,9.82a1.62,1.62,0,0,0,1.94-.8c.74-2.67-4.59-4-3.57-7.76A2.52,2.52,0,0,1,22.7,4.15a7.57,7.57,0,0,1,5,9.6c-.42,1.52.06,2.27,1.44,2.65,1.91.53,4.95-1,5.38-2.52C35.72,9.5,28.9,1.55,24.13.23A6.4,6.4,0,0,0,16.37,4.35ZM36.16,43.69A1.06,1.06,0,0,0,36.93,45c2.44.67,3.81-8.4,9.53-6.82,1.49.42,1.52,2.37,1.15,3.71-.85,3-3.87,4.07-4.22,5.31a1.12,1.12,0,0,0,.86,1.46c1.91.53,7.39-1.55,8.68-6.22,1-3.53-.11-8.66-2.87-9.42C45.29,31.73,38.11,36.63,36.16,43.69Zm.93-23.45c-1,3.43-.07,6,1.73,6.53a2.74,2.74,0,0,0,3.42-2c.32-1.15-1.48-2.89-1-4.51a5.13,5.13,0,0,1,6.36-3.58c1.48.41,1.56,3,.93,5.29-.93,3.34-3.6,3.53-4,5.05a1,1,0,0,0,.77,1.35c1.8.5,7.77-2.89,9-7.19a6.61,6.61,0,0,0-1.6-6.6c-1.2-1.46-.75-3.49-2-3.85C47.18,9.78,38.76,14.23,37.09,20.24ZM60.18,36.87a.83.83,0,0,0,.64,1c1.8.49,6.51-3.75,10.75-2.58a2.06,2.06,0,0,1,1.57,2.6c-1.21,4.38-6.94,3.62-7.42,5.34-.15.57.14,1.16,1.09,1.43,4.14,1.14,11-1.57,12.24-5.86.79-2.86-1.55-6.8-4.51-7.62C69.76,29.87,60.84,34.49,60.18,36.87Zm10,15A1.06,1.06,0,0,0,71,53.21c1.8.5,2.87,0,4.35.38,3,.82,4.25,2.41,4,3.46-.35,1.24-2,1.81-4.43,1.14-2.23-.62-4.09-2.57-5.14-2.86a1.19,1.19,0,0,0-1.59.79c-.4,1.43,3.13,4.77,6.94,5.82,2.87.8,9.65-2.26,10.23-4.36.63-2.29-2.34-5.57-5-6.31C77.1,50.39,70.63,50.25,70.19,51.87Z"/><path class="cls-1" d="M44.44,115.36H38c0-.63,0-21-.3-54.4,0-3.43-.9-5.81-2.58-7.07-2.51-1.86-6.71-1.23-8-.86l-1.8-6.21c.33-.09,8.07-2.27,13.65,1.89,3.39,2.53,5.14,6.63,5.19,12.19C44.44,94.38,44.44,114.73,44.44,115.36Z"/><rect class="cls-1" x="35.55" y="54.82" width="28.79" height="5.8" transform="translate(-26.22 52.74) rotate(-45.39)"/></g></g></svg>