<svg xmlns="http://www.w3.org/2000/svg" viewBox="0 0 328.87 195.26"><defs><style>.cls-1{fill:#445d6421;opacity:0.4;}.cls-2{fill:#fff;}</style></defs><title>Asset 9</title><g id="Layer_2" data-name="Layer 2"><g id="Layer_1-2" data-name="Layer 1"><path class="cls-1" d="M83.65,57.93c-.32,1.14-1.93,2.08-4.27,1.43-3.76-1-7.58-3.31-9.6-7.19C69.15,51,66.72,42.3,67.08,41a1.3,1.3,0,0,1,1.79-.89C76.59,42.24,85.52,51.14,83.65,57.93ZM61.87,38.86C58.52,51,65.4,61.75,79.22,65.57c8.79,2.43,13.72.67,14.7-2.89.4-1.44-.41-4.1-.45-9.51C93.5,46.06,80.26,38,72,35.76,65.55,34,63,34.83,61.87,38.86ZM42.55,78.94c-.9,3.24,5.17,14.13,11.81,16,8.26,2.29,15.07.7,19.37-3,6.9-6.08,9.82-4.76,10.45-7,.18-2-4.5-8.89-9-10C62.23,71.35,44.38,72.33,42.55,78.94Zm33.27,6.34c-.45,1.61-8.83,7.47-14.4,5.93-5.74-1.59-9.6-8.57-9.24-9.87s8.69-3.5,16.23-1.41C73.07,81.22,76.14,84.15,75.82,85.28ZM76,103.91a12.86,12.86,0,0,0-11.07,9.28c-.8,2.91,4.19,8.63,11.72,10.71,11.49,3.18,21.52-6.56,22.28-9.31.4-1.45-.9-2.33-2.24-4.44-2-3.33-2.92-6.2-5.25-6.85C88.33,102.46,80.08,103.65,76,103.91ZM91,113.64c-1.16,4.2-8.16,7.83-11.21,7-2-.55-1-4.1-4.77-5.15-1.61-.44-2.14-2-1.61-3.93s7.17-2.88,13.1-1.24C88.34,110.81,91.3,112.68,91,113.64ZM70.18,7.36C68.3,14.14,73.64,22.75,78.13,24c1.26.35,3-.22,3.28-1.35,1.25-4.53-7.78-6.85-6-13.15C76,7.23,78.55,6.38,80.89,7c5.74,1.59,10.73,8,8.45,16.25-.72,2.58.09,3.85,2.42,4.5,3.24.89,8.39-1.68,9.11-4.28,2-7.42-9.49-20.87-17.56-23.11C77.56-1.21,71.56,2.36,70.18,7.36ZM103.67,74a1.79,1.79,0,0,0,1.3,2.26c4.13,1.14,6.44-14.21,16.13-11.53,2.52.7,2.57,4,2,6.28-1.44,5.16-6.55,6.88-7.14,9a1.9,1.9,0,0,0,1.45,2.48c3.23.89,12.51-2.62,14.7-10.53,1.65-6-.2-14.66-4.86-16C119.12,53.7,107,62,103.67,74Zm1.57-39.7c-1.6,5.82-.12,10.22,2.93,11.07A4.64,4.64,0,0,0,114,41.89c.54-1.94-2.5-4.88-1.75-7.63A8.67,8.67,0,0,1,123,28.2c2.5.7,2.65,5.09,1.58,9-1.57,5.65-6.11,6-6.82,8.54A1.72,1.72,0,0,0,119,48c3,.85,13.13-4.88,15.15-12.16,1.34-4.84-.1-8-2.71-11.17-2-2.47-1.26-5.92-3.42-6.52C122.31,16.55,108.06,24.08,105.24,34.25Zm39.08,28.16a1.4,1.4,0,0,0,1.08,1.7c3,.84,11-6.34,18.21-4.36a3.5,3.5,0,0,1,2.65,4.4c-2.06,7.41-11.75,6.13-12.55,9-.27,1,.23,2,1.84,2.42,7,1.94,18.7-2.66,20.71-9.92,1.35-4.84-2.61-11.5-7.64-12.89C160.55,50.56,145.43,58.38,144.32,62.41Zm16.94,25.38a1.82,1.82,0,0,0,1.29,2.28c3.06.84,4.85,0,7.37.64,5,1.39,7.18,4.08,6.69,5.85-.58,2.1-3.36,3.07-7.49,1.93-3.77-1-6.92-4.35-8.71-4.84A2,2,0,0,0,157.72,95c-.67,2.42,5.3,8.07,11.76,9.86,4.85,1.34,16.32-3.84,17.31-7.38,1.07-3.88-4-9.44-8.45-10.69C173,85.3,162,85.05,161.26,87.79Z"/><path class="cls-1" d="M147.6,83.79l-7-6.89-23.53,23.85c-.52-8.23-3.43-14.39-8.69-18.3-9.45-7-22.54-3.36-23.1-3.2l3,10.51c2.16-.62,9.28-1.69,13.52,1.46,2.85,2.13,4.33,6.15,4.38,12,.5,56.63.51,91,.51,92.08h10.94c0-1,0-30.9-.41-80.72Z"/><path class="cls-1" d="M22.5,110.94c-.21.79-1.34,1.44-3,1a10.44,10.44,0,0,1-6.69-5c-.44-.85-2.13-6.88-1.88-7.79a.9.9,0,0,1,1.24-.62C17.59,100,23.81,106.21,22.5,110.94ZM7.34,97.65C5,106.1,9.79,113.6,19.42,116.26c6.13,1.69,9.56.47,10.25-2,.27-1-.29-2.86-.32-6.63,0-5-9.2-10.54-14.95-12.13C9.9,94.25,8.11,94.84,7.34,97.65Zm-7.28,28c-.62,2.25,3.61,9.84,8.23,11.12,5.75,1.59,10.5.48,13.5-2.08,4.8-4.24,6.84-3.31,7.27-4.89.13-1.42-3.13-6.19-6.29-7C13.77,120.34,1.34,121,.06,125.63Zm23.18,4.42c-.31,1.12-6.15,5.2-10,4.13s-6.69-6-6.44-6.88,6.06-2.44,11.31-1C21.33,127.22,23.46,129.26,23.24,130.05Zm-.93,12.56a9,9,0,0,0-7.72,6.5c-.56,2,2.92,6,8.16,7.47,8,2.22,15-4.6,15.53-6.51.28-1-.63-1.63-1.56-3.11-1.38-2.32-2-4.33-3.66-4.78C30.94,141.59,25.19,142.43,22.31,142.61Zm10.51,6.8c-.82,2.93-5.69,5.47-7.82,4.88-1.38-.38-.69-2.86-3.32-3.59-1.12-.31-1.49-1.39-1.12-2.74s5-2,9.13-.88C30.94,147.43,33,148.73,32.82,149.41ZM18.43,83.33C17.12,88.06,20.84,94.06,24,94.92A1.9,1.9,0,0,0,26.25,94c.87-3.15-5.42-4.77-4.2-9.16.43-1.57,2.21-2.17,3.84-1.72a8.93,8.93,0,0,1,5.88,11.32c-.49,1.8.07,2.68,1.69,3.13,2.26.63,5.85-1.17,6.35-3C41.24,89.41,33.2,80,27.57,78.48A7.53,7.53,0,0,0,18.43,83.33Zm20.69,30.93a1.26,1.26,0,0,0,.91,1.58c2.88.8,4.49-9.9,11.24-8,1.75.48,1.79,2.79,1.35,4.37-1,3.6-4.56,4.79-5,6.26a1.32,1.32,0,0,0,1,1.72c2.25.62,8.71-1.82,10.24-7.33,1.15-4.17-.14-10.22-3.39-11.11C49.89,100.16,41.42,105.94,39.12,114.26Z"/><path class="cls-1" d="M52.07,126.1a14.59,14.59,0,0,0-4.44,7.67l-8.31-9.16-4,3.66,11.62,12.8c-1,35.16.06,53.42.08,53.61l6-.37c0-.14-.66-11.41-.45-33.26l6.92-6.65-3.77-3.92-3,2.92q.11-6.78.35-14.66c.11-3.66,1.12-6.37,3-8.06a9.73,9.73,0,0,1,6.52-2.16l.53-6.05A15.84,15.84,0,0,0,52.07,126.1Z"/><path class="cls-1" d="M309.71,53.5a1.25,1.25,0,0,1,1.71.85c.34,1.24-2,9.52-2.58,10.69a14.45,14.45,0,0,1-9.18,6.87c-2.23.61-3.77-.28-4.07-1.37C293.79,64.05,302.33,55.54,309.71,53.5Zm-3-4.15c-7.89,2.18-20.55,9.84-20.51,16.64-.05,5.17-.82,7.71-.44,9.09.94,3.4,5.65,5.09,14.06,2.76C313,74.19,319.61,63.9,316.4,52.31,315.34,48.46,312.89,47.64,306.71,49.35Zm-9.09,36.5c-4.33,1-8.8,7.58-8.63,9.53.6,2.16,3.39.9,10,6.72,4.11,3.51,10.62,5,18.52,2.84,6.34-1.75,12.15-12.16,11.29-15.26C327,83.36,310,82.43,297.62,85.85Zm6.44,4.78c7.21-2,15.18.12,15.52,1.35s-3.35,7.92-8.83,9.43c-5.32,1.48-13.34-4.12-13.77-5.67C296.68,94.67,299.61,91.86,304.06,90.63ZM282.1,113c-2.23.62-3.13,3.37-5,6.55-1.28,2-2.53,2.86-2.14,4.25.72,2.62,10.31,11.93,21.29,8.89,7.2-2,12-7.46,11.21-10.23a12.3,12.3,0,0,0-10.59-8.88C292.91,113.3,285,112.17,282.1,113Zm4.62,6.7c5.67-1.56,12-.66,12.52,1.19s0,3.33-1.53,3.76c-3.61,1-2.67,4.39-4.57,4.91-2.91.81-9.6-2.66-10.71-6.67C282.18,121.94,285,120.15,286.72,119.67Zm3.11-105.09c-7.73,2.14-18.76,15-16.79,22.1.68,2.48,5.61,4.94,8.7,4.08,2.23-.61,3-1.83,2.32-4.3-2.18-7.87,2.58-14,8.07-15.53,2.24-.62,4.68.2,5.28,2.36,1.66,6-7,8.25-5.77,12.57.3,1.08,1.93,1.63,3.13,1.29,4.3-1.18,9.4-9.41,7.61-15.9C301.05,16.47,295.31,13.06,289.83,14.58Zm-42,53.11c-4.45,1.24-6.22,9.53-4.64,15.25,2.09,7.56,11,10.92,14,10.07a1.81,1.81,0,0,0,1.38-2.37c-.55-2-5.45-3.65-6.82-8.59-.59-2.16-.54-5.33,1.86-6,9.27-2.56,11.48,12.12,15.42,11a1.72,1.72,0,0,0,1.25-2.17C267.2,73.48,255.59,65.55,247.86,67.69Zm-.81-36.14c-2.07.58-1.33,3.87-3.27,6.24-2.49,3-3.87,6-2.59,10.67,1.93,7,11.58,12.43,14.49,11.63a1.65,1.65,0,0,0,1.24-2.18c-.68-2.46-5-2.77-6.51-8.17-1-3.7-.88-7.9,1.51-8.56A8.28,8.28,0,0,1,262.2,47c.72,2.63-2.19,5.43-1.67,7.29a4.42,4.42,0,0,0,5.53,3.28c2.91-.81,4.33-5,2.79-10.58C266.16,37.24,252.53,30,247.05,31.55ZM208.27,64.69C203.46,66,199.68,72.39,201,77c1.92,6.94,13.11,11.33,19.81,9.48,1.53-.43,2-1.39,1.75-2.32-.76-2.77-10-1.55-12-8.64a3.32,3.32,0,0,1,2.53-4.2c6.86-1.9,14.49,5,17.4,4.17a1.34,1.34,0,0,0,1-1.63C230.43,70,216,62.56,208.27,64.69Z"/><path class="cls-1" d="M252.6,101.15a20.13,20.13,0,0,1,6.09,10.53l11.4-12.57,5.53,5L259.68,121.7c1.36,48.25-.09,73.31-.11,73.56l-8.31-.5c0-.19.9-15.65.61-45.64L242.38,140l5.17-5.38,4.18,4q-.15-9.3-.48-20.12c-.15-5-1.54-8.74-4.12-11.07-3.69-3.31-8.9-3-8.95-3l-.72-8.3C237.82,96.15,246.17,95.46,252.6,101.15Z"/><path class="cls-1" d="M204.21,118.35c0,.52-.57,1.11-1.63,1.11a6.64,6.64,0,0,1-4.91-1.91,19.82,19.82,0,0,1-2.45-4.42.58.58,0,0,1,.65-.59C199.39,112.54,204.21,115.26,204.21,118.35Zm-11.45-5.51c0,5.51,4.18,9.27,10.47,9.27,4,0,5.89-1.32,5.89-2.94,0-.67-.66-1.7-1.31-4-.82-3-7.36-4.86-11.12-4.86C193.75,110.33,192.76,111,192.76,112.84ZM187.93,138a5.64,5.64,0,0,0-3.6,5.22c0,1.33,2.78,3.17,6.21,3.17,5.24,0,8.35-5.3,8.35-6.56,0-.65-.66-.88-1.48-1.61-1.23-1.18-2-2.28-3-2.28C193,136,189.65,137.42,187.93,138Zm7.52,2.35c0,1.91-2.53,4.27-3.92,4.27-.9,0-.9-1.62-2.62-1.62-.73,0-1.14-.59-1.14-1.47s2.7-2.06,5.39-2.06C194,139.48,195.45,139.92,195.45,140.36Zm2.61-42.23c0,3.09,3.27,6.1,5.31,6.1.58,0,1.23-.44,1.23-1,0-2.06-4.09-2-4.09-4.86a1.87,1.87,0,0,1,2-1.69,5.63,5.63,0,0,1,5.49,5.88c0,1.18.49,1.62,1.55,1.62,1.47,0,3.35-1.69,3.35-2.87,0-3.38-6.46-7.72-10.14-7.72A4.75,4.75,0,0,0,198.06,98.13Zm12.37,33.32a.79.79,0,0,0,.82.81c1.87,0,1.06-6.77,5.47-6.77,1.15,0,1.56,1.4,1.56,2.43,0,2.35-2,3.68-2,4.64a.83.83,0,0,0,.9.87c1.47,0,5-2.57,5-6.17,0-2.72-1.8-6.18-3.92-6.18C214.6,121.08,210.43,126,210.43,131.45Zm.93-21.55c0,2.65,1.15,4.34,2.53,4.34a2,2,0,0,0,2.05-2.13c0-.88-1.64-1.77-1.64-3a3.81,3.81,0,0,1,3.85-3.83c1.14,0,1.71,1.84,1.71,3.6,0,2.58-1.88,3.24-1.88,4.42a.76.76,0,0,0,.82.81c1.39,0,5-3.61,5-6.92a4.91,4.91,0,0,0-2.45-4.41c-1.15-.81-1.23-2.36-2.21-2.36C216.51,100.41,211.36,105.27,211.36,109.9Zm12.38,14.9a.62.62,0,0,0,.66.59c1.38,0,3.92-4,7.19-4a1.53,1.53,0,0,1,1.64,1.55c0,3.38-4.26,4-4.26,5.29,0,.44.33.81,1.06.81,3.2,0,7.61-3.31,7.61-6.62,0-2.21-2.45-4.56-4.75-4.56C229.22,117.89,223.74,123,223.74,124.8Zm-6.14,11.57a.79.79,0,0,0,.82.8c1.39,0,2.05-.58,3.19-.58,2.29,0,3.52.88,3.52,1.69s-1.06,1.69-2.95,1.69c-1.71,0-3.43-1-4.25-1a.9.9,0,0,0-1,.88c0,1.1,3.19,2.8,6.13,2.8,2.21,0,6.46-3.53,6.46-5.15,0-1.77-2.78-3.53-4.82-3.53C222.27,133.94,217.6,135.12,217.6,136.37Z"/><path class="cls-1" d="M213.18,139.84,210,137l-3.08,3.49v-1.91c0-8.77-4-11.51-6.36-12.36-1.75-.62-4.75-.82-5.95.66l3.26,3.74.37,0a3.48,3.48,0,0,1,1.63.68c1.48,1.16,2.25,3.69,2.25,7.32v56.11h4.8V147Z"/><path class="cls-1" d="M64.79,21.38a1.17,1.17,0,0,1-1.33,1c-2.65-.17-7-8-13.26-8.38a2.91,2.91,0,0,0-3.31,2.71c-.42,6.36,7.63,8,7.47,10.49-.06.83-.73,1.48-2.13,1.39-6.1-.4-14.13-7.18-13.72-13.4.27-4.15,5.26-8.28,9.63-8C55.17,7.69,65,17.93,64.79,21.38Z"/><path class="cls-1" d="M234.78,49.87a1.39,1.39,0,0,1-1.58,1.23c-3.15-.21-8.34-9.48-15.77-10a3.47,3.47,0,0,0-3.94,3.23c-.5,7.55,9.08,9.51,8.89,12.47-.07,1-.87,1.76-2.53,1.65C212.59,58,203,49.94,203.53,42.54c.32-4.94,6.25-9.84,11.45-9.5C223.34,33.59,235.05,45.77,234.78,49.87Z"/><path class="cls-1" d="M141,36.18a1.61,1.61,0,0,0,1.1,2c3.63,1.12,6.1-12.45,14.63-9.81,2.22.69,2.18,3.63,1.56,5.62-1.41,4.55-6,5.94-6.58,7.79a1.69,1.69,0,0,0,1.22,2.24c2.84.88,11.18-2,13.33-9,1.63-5.26.23-13-3.88-14.29C155.24,18.62,144.23,25.66,141,36.18Z"/><path class="cls-1" d="M30.57,44c1.92,6.46,8.43,16.76,14,16.62,4.25-.05,6.35.55,7.48.22,2.79-.83,4.1-4.74,2.05-11.62C50.91,38.39,42.34,33.14,32.85,36,29.7,36.9,29.06,38.93,30.57,44Z"/><path class="cls-2" d="M34.75,43.06a1,1,0,0,1,.67-1.42c1-.3,7.87,1.47,8.83,2A11.84,11.84,0,0,1,50.05,51c.55,1.82-.16,3.11-1,3.37C43.68,56,36.55,49.1,34.75,43.06Z"/><path class="cls-1" d="M239.85,31.44c2.35-1.37,8.93-13,3.21-22.85-3.76-6.46-10.25-9.7-12.75-8.25a12.3,12.3,0,0,0-5.9,12.49c.76,3.88,1.66,11.8,3.18,14.41,1.16,2,4,2.18,7.6,3.2,2.28.73,3.41,1.72,4.66,1"/><path class="cls-2" d="M232.9,21.07c-3-5.08-3.68-11.44-2-12.41s3.23-.84,4,.54c1.88,3.23,4.92,1.47,5.91,3.17,1.52,2.61-.14,10-3.74,12.05C236.24,24.9,233.79,22.61,232.9,21.07Z"/><path class="cls-1" d="M185.34,37.38c5.69-.05,11.29,5.38,11.32,8.8a2.07,2.07,0,0,1-1.75,2.07c-3.8,0-3.71-6.82-9-6.78a3.24,3.24,0,0,0-3.1,3.45c0,4.37,4,9.13,10.91,9.08,2.17,0,3,.8,3,2.57,0,2.47-3.08,5.64-5.26,5.65-6.23.05-14.31-10.7-14.35-16.85C177.1,41,181.14,37.41,185.34,37.38Z"/><path class="cls-1" d="M219.27,18.77a1.33,1.33,0,0,1-.75,1.79C215.65,21.62,212.77,10,206,12.49c-1.75.64-1.53,3.18-.9,4.88,1.44,3.88,5.24,5,5.83,6.54a1.41,1.41,0,0,1-.84,2c-2.24.83-9.18-1.43-11.37-7.38-1.67-4.5-1-11.21,2.21-12.41C206.58,4,216,9.79,219.27,18.77Z"/><path class="cls-1" d="M83.55,147.73c0,.32.31.68.89.68a3.37,3.37,0,0,0,2.66-1.17,12.78,12.78,0,0,0,1.33-2.7.33.33,0,0,0-.35-.37C86.17,144.17,83.55,145.84,83.55,147.73Zm6.21-3.37A5.37,5.37,0,0,1,84.08,150c-2.17,0-3.19-.81-3.19-1.8,0-.4.35-1,.71-2.43.44-1.85,4-3,6-3C89.23,142.82,89.76,143.23,89.76,144.36Zm2.63,15.41a3.47,3.47,0,0,1,2,3.2c0,.81-1.51,1.94-3.37,1.94-2.84,0-4.53-3.24-4.53-4,0-.41.36-.54.8-1,.67-.72,1.06-1.4,1.64-1.4A16.67,16.67,0,0,1,92.39,159.77Zm-4.09,1.44c0,1.17,1.38,2.62,2.14,2.62.48,0,.48-1,1.42-1,.39,0,.62-.36.62-.91s-1.47-1.26-2.93-1.26C89.1,160.67,88.3,161,88.3,161.21Zm-1.41-25.87c0,1.9-1.78,3.74-2.89,3.74a.67.67,0,0,1-.66-.58c0-1.26,2.22-1.22,2.22-3a1.05,1.05,0,0,0-1.11-1c-1.42,0-3,1.3-3,3.6,0,.72-.26,1-.84,1a2.18,2.18,0,0,1-1.82-1.76c0-2.07,3.51-4.72,5.51-4.72A2.75,2.75,0,0,1,86.89,135.34Zm-6.71,20.42a.46.46,0,0,1-.45.49c-1,0-.58-4.14-3-4.14-.62,0-.84.85-.84,1.48,0,1.44,1.06,2.26,1.06,2.84a.48.48,0,0,1-.49.54c-.8,0-2.7-1.58-2.7-3.78,0-1.67,1-3.79,2.13-3.79C77.91,149.4,80.18,152.42,80.18,155.76Zm-.51-13.2c0,1.62-.62,2.66-1.38,2.66a1.19,1.19,0,0,1-1.11-1.31c0-.54.89-1.08.89-1.85A2.21,2.21,0,0,0,76,139.72c-.63,0-.94,1.13-.94,2.21,0,1.57,1,2,1,2.7,0,.32-.17.5-.44.5-.75,0-2.7-2.21-2.7-4.24a3.11,3.11,0,0,1,1.32-2.7c.63-.5.67-1.45,1.2-1.45C76.87,136.74,79.67,139.72,79.67,142.56ZM73,151.68a.36.36,0,0,1-.36.37c-.75,0-2.12-2.44-3.9-2.44a.89.89,0,0,0-.89.95c0,2.07,2.31,2.43,2.31,3.24,0,.27-.18.5-.58.5-1.73,0-4.13-2-4.13-4.06A3,3,0,0,1,68,147.45C70,147.45,73,150.56,73,151.68Zm3.33,7.09a.46.46,0,0,1-.44.49c-.76,0-1.11-.36-1.73-.36-1.25,0-1.91.54-1.91,1s.57,1,1.59,1,1.87-.63,2.31-.63a.51.51,0,0,1,.53.54c0,.67-1.72,1.71-3.32,1.71-1.2,0-3.51-2.17-3.51-3.16s1.51-2.16,2.62-2.16C73.75,157.28,76.28,158,76.28,158.77Z"/><path class="cls-1" d="M78.68,160.89l1.76-1.74,1.67,2.13v-1.17c0-5.37,2.16-7.05,3.45-7.57,1-.38,2.58-.5,3.23.41L87,155.24l-.2,0a1.71,1.71,0,0,0-.89.42c-.8.71-1.22,2.25-1.22,4.48v34.37h-2.6v-29.2Z"/><path class="cls-1" d="M141.36,131.08c-.16.56-1,1-2.08.7a7.36,7.36,0,0,1-4.69-3.51c-.31-.59-1.5-4.82-1.32-5.46a.63.63,0,0,1,.87-.43C137.91,123.42,142.27,127.77,141.36,131.08Zm-10.64-9.31c-1.63,5.92,1.73,11.17,8.47,13,4.3,1.19,6.7.33,7.18-1.41.2-.7-.2-2-.22-4.64,0-3.47-6.45-7.39-10.48-8.5C132.52,119.38,131.27,119.8,130.72,121.77Zm-6.32,19.09c-.44,1.58,2.52,6.9,5.77,7.79,4,1.12,7.35.34,9.45-1.45,3.37-3,4.8-2.33,5.1-3.43.09-1-2.19-4.34-4.4-4.87C134,137.15,125.29,137.63,124.4,140.86ZM140.64,144c-.21.79-4.31,3.65-7,2.9s-4.69-4.18-4.51-4.82,4.24-1.71,7.93-.69C139.3,142,140.8,143.4,140.64,144Zm.07,9.1a6.29,6.29,0,0,0-5.41,4.53c-.39,1.42,2,4.21,5.73,5.23,5.6,1.55,10.5-3.2,10.87-4.54.2-.71-.44-1.14-1.09-2.17-1-1.63-1.43-3-2.57-3.35C146.75,152.34,142.72,152.92,140.71,153.05Zm7.36,4.75c-.56,2-4,3.82-5.47,3.41-1-.27-.48-2-2.33-2.51-.78-.22-1.05-1-.78-1.92s3.5-1.4,6.39-.6C146.76,156.42,148.2,157.33,148.07,157.8Zm-10.18-51.89c-.92,3.31,1.69,7.51,3.88,8.12a1.34,1.34,0,0,0,1.6-.66c.61-2.21-3.8-3.34-3-6.42a2.08,2.08,0,0,1,2.7-1.2,6.26,6.26,0,0,1,4.12,7.93c-.35,1.26,0,1.88,1.19,2.19,1.58.44,4.09-.81,4.44-2.08,1-3.63-4.63-10.2-8.57-11.29A5.29,5.29,0,0,0,137.89,105.91Zm16.35,32.51a.88.88,0,0,0,.64,1.11c2,.55,3.14-6.94,7.87-5.63,1.23.34,1.26,2,.95,3.06-.7,2.52-3.2,3.36-3.48,4.39a.93.93,0,0,0,.7,1.21c1.58.43,6.11-1.28,7.18-5.14.81-2.93-.1-7.16-2.37-7.79C161.78,128.54,155.85,132.59,154.24,138.42ZM155,119c-.79,2.84-.06,5,1.43,5.4a2.26,2.26,0,0,0,2.82-1.67c.26-1-1.22-2.38-.85-3.72a4.22,4.22,0,0,1,5.25-3c1.22.34,1.29,2.48.77,4.37-.77,2.76-3,2.91-3.33,4.17a.84.84,0,0,0,.64,1.11c1.48.42,6.41-2.38,7.4-5.93a5.46,5.46,0,0,0-1.33-5.46c-1-1.2-.61-2.89-1.66-3.18C163.34,110.4,156.38,114.08,155,119Z"/><path class="cls-1" d="M163.31,146.72a10.27,10.27,0,0,0-3.11,5.37l-5.83-6.42-2.82,2.57,8.15,9c-.7,24.64,0,37.44.05,37.57l4.25-.25c0-.1-.47-8-.32-23.32l4.85-4.66-2.64-2.75-2.14,2q.09-4.75.25-10.27c.08-2.57.78-4.47,2.1-5.65a6.83,6.83,0,0,1,4.57-1.52l.37-4.24A11.14,11.14,0,0,0,163.31,146.72Z"/></g></g></svg>