<svg xmlns="http://www.w3.org/2000/svg" viewBox="0 0 48.93 35.13"><defs><style>.cls-1{fill:#fff;}</style></defs><title>Asset 3</title><g id="Layer_2" data-name="Layer 2"><g id="Layer_1-2" data-name="Layer 1"><path class="cls-1" d="M20.26,15.34c-.06.22-.38.4-.83.28a2.94,2.94,0,0,1-1.87-1.4A8.8,8.8,0,0,1,17,12.05a.25.25,0,0,1,.35-.17C18.89,12.29,20.62,14,20.26,15.34ZM16,11.64c-.66,2.35.68,4.44,3.37,5.19,1.7.47,2.66.13,2.85-.57.08-.28-.08-.79-.09-1.84C22.17,13,19.6,11.48,18,11,16.74,10.69,16.24,10.85,16,11.64Zm-2.52,7.59c-.18.63,1,2.75,2.29,3.1a4,4,0,0,0,3.77-.58c1.34-1.18,1.9-.92,2-1.36a3,3,0,0,0-1.76-1.94C17.33,17.76,13.86,18,13.51,19.23ZM20,20.46a3.28,3.28,0,0,1-2.79,1.15,2.77,2.77,0,0,1-1.8-1.91c.07-.25,1.69-.68,3.15-.28C19.44,19.67,20,20.24,20,20.46Zm0,3.62a2.5,2.5,0,0,0-2.15,1.8c-.16.57.81,1.68,2.27,2.09a4.11,4.11,0,0,0,4.33-1.81c.08-.29-.17-.46-.43-.87-.39-.64-.57-1.2-1-1.33A14.88,14.88,0,0,0,20,24.08ZM22.93,26a2.34,2.34,0,0,1-2.18,1.36c-.38-.11-.19-.8-.92-1-.32-.09-.42-.39-.32-.76s1.4-.56,2.55-.24C22.41,25.42,23,25.79,22.93,26ZM18.88,5.32a3,3,0,0,0,1.54,3.24c.25.06.58-.05.64-.27.24-.88-1.51-1.33-1.17-2.55A.82.82,0,0,1,21,5.26,2.5,2.5,0,0,1,22.6,8.42c-.14.5,0,.74.47.87a1.71,1.71,0,0,0,1.77-.83C25.24,7,23,4.4,21.43,4A2.09,2.09,0,0,0,18.88,5.32Zm6.5,12.94a.35.35,0,0,0,.26.44c.8.22,1.25-2.76,3.13-2.24.49.14.5.78.38,1.22-.28,1-1.28,1.34-1.39,1.74a.37.37,0,0,0,.28.49,3,3,0,0,0,2.86-2.05c.32-1.16,0-2.85-.95-3.1C28.38,14.33,26,15.94,25.38,18.26Zm.31-7.71c-.31,1.13,0,2,.57,2.15A.9.9,0,0,0,27.38,12c.1-.37-.49-.94-.34-1.48a1.67,1.67,0,0,1,2.09-1.17c.49.13.51,1,.31,1.73-.31,1.1-1.19,1.16-1.33,1.66a.35.35,0,0,0,.26.45c.59.16,2.55-1,2.94-2.36a2.18,2.18,0,0,0-.53-2.18c-.39-.48-.24-1.14-.66-1.26C29,7.11,26.24,8.57,25.69,10.55ZM33.28,16a.26.26,0,0,0,.21.33c.59.16,2.14-1.23,3.54-.85a.68.68,0,0,1,.51.86c-.4,1.44-2.28,1.19-2.44,1.75-.05.19,0,.39.36.47,1.36.38,3.64-.51,4-1.92A2.28,2.28,0,0,0,38,14.15C36.43,13.72,33.5,15.24,33.28,16ZM36.57,21a.34.34,0,0,0,.25.44c.6.17.94,0,1.43.13,1,.27,1.4.79,1.3,1.14s-.65.59-1.45.37-1.35-.85-1.69-.94a.4.4,0,0,0-.53.26c-.13.47,1,1.57,2.29,1.91.94.27,3.17-.74,3.36-1.43s-.77-1.83-1.64-2.08C38.84,20.47,36.72,20.42,36.57,21Z"/><path class="cls-1" d="M29.1,35.13H27c0-.2,0,.81-.1-10.19A2.78,2.78,0,0,0,26,22.62a3.45,3.45,0,0,0-2.63-.29l-.59-2a5.67,5.67,0,0,1,4.49.62,4.75,4.75,0,0,1,1.71,4C29.1,35.93,29.1,34.93,29.1,35.13Z"/><rect class="cls-1" x="26.18" y="22.92" width="9.47" height="1.91" transform="translate(-7.79 29.12) rotate(-45.39)"/><path class="cls-1" d="M46.93,2V33.13H2V2H46.93m2-2H0V35.13H48.93V0Z"/></g></g></svg>