<svg xmlns="http://www.w3.org/2000/svg" width="495px" height="229px" viewBox="0 0 495 100" preserveAspectRatio="xMinYMin meet">

 <g>
  <title>background</title>
  <rect fill="none" id="canvas_background" y="-1" x="-1"/>
 </g>
 <g>
  <title>CSCU Home</title>
  <g id="svg_1" fill="#2b68b2">
   <g id="svg_2">
    <path id="svg_3" d="m146.168965,157.943021c-7.459,4.972 -20.441,7.32 -33.147,7.32c-33.703,0 -47.237,-21.273 -47.237,-51.659c0,-29.972 16.434,-51.796 49.584,-51.796c12.153,0 23.617,2.902 30.523,7.46l0,22.101l-9.392,-0.555l-2.347,-13.123c-0.138,-1.242 -0.414,-2.07 -1.799,-2.484c-4.832,-1.656 -11.049,-3.039 -17.538,-3.039c-21.688,0 -35.774,14.363 -35.774,41.437c0,26.935 13.262,41.297 34.808,41.297c6.213,0 14.086,-0.69 19.333,-2.897c1.109,-0.416 1.661,-0.83 1.937,-2.488l2.209,-12.43l8.84,0l0,20.856z"/>
    <path id="svg_4" d="m214.524965,89.295021l-2.071,-11.74c-0.414,-1.934 -0.833,-2.485 -1.518,-2.9c-1.937,-1.104 -5.941,-2.349 -13.124,-2.349c-14.229,0 -21.132,6.215 -21.132,16.021c0,11.466 9.945,14.78 20.993,18.232c13.815,4.284 29.42,8.839 29.42,29.56c0,21.405 -16.848,29.145 -36.599,29.145c-12.572,0 -24.725,-3.18 -29.009,-5.25l0,-22.65l9.258,0l2.623,12.152c0.414,1.796 0.824,2.348 2.762,3.041c2.071,0.688 7.455,2.345 15.466,2.345c14.091,0 22.516,-5.386 22.516,-17.403c0,-12.154 -9.53,-15.744 -20.303,-18.924c-13.948,-4.141 -30.109,-7.73 -30.109,-28.59c0,-19.752 15.467,-28.176 34.665,-28.176c11.605,0 20.998,3.039 25.692,4.835l0,23.479l-9.53,-0.828z"/>
    <path id="svg_5" d="m321.416965,157.943021c-7.456,4.972 -20.438,7.32 -33.147,7.32c-33.704,0 -47.233,-21.273 -47.233,-51.659c0,-29.972 16.433,-51.796 49.584,-51.796c12.154,0 23.616,2.902 30.519,7.46l0,22.101l-9.388,-0.555l-2.348,-13.123c-0.142,-1.242 -0.417,-2.07 -1.798,-2.484c-4.831,-1.656 -11.049,-3.039 -17.542,-3.039c-21.684,0 -35.774,14.363 -35.774,41.437c0,26.935 13.267,41.297 34.812,41.297c6.213,0 14.083,-0.69 19.333,-2.897c1.104,-0.416 1.66,-0.83 1.937,-2.488l2.209,-12.43l8.837,0l0,20.856l-0.001,0z"/>
    <path id="svg_6" d="m407.870965,74.793021c0,-2.07 -0.275,-2.625 -2.21,-2.764l-8.702,-0.967l0,-7.459l34.257,0l0,7.459l-9.259,1.105c-2.071,0.275 -2.209,0.555 -2.209,2.625l0,55.387c0,23.897 -13.258,35.084 -36.874,35.084c-25.693,0 -35.779,-12.157 -35.779,-35.359l0,-55.111c0,-2.07 -0.275,-2.625 -2.204,-2.764l-8.706,-0.967l0,-7.459l35.083,0l0,7.459l-9.254,1.105c-2.071,0.275 -2.208,0.555 -2.208,2.625l0,53.588c0,18.65 7.873,26.106 23.896,26.106c16.295,0 24.169,-6.491 24.169,-25.688l0,-54.005z"/>
   </g>
   <path id="svg_7" d="m492.611965,10.084021l0,-9.668l-488.224,0l0,9.668l0,206.908l0,9.669l488.225,0l0,-9.669l-0.003,0l0,-206.908l0.002,0zm-9.67,206.908l-468.886,0l0,-206.908l468.886,0l0,206.908z"/>
  </g>
 </g>
</svg>